<svg xmlns="http://www.w3.org/2000/svg" width="216.996" height="206.757" viewBox="0 0 216.996 206.757">
  <path id="ic_line" d="M102.528,206.758h0a3.612,3.612,0,0,1-2.917-1.13c-1.331-1.584-.825-4.471-.553-6.022l0-.012.04-.23c.27-1.6,1.537-9.222,1.548-9.287.6-4.518.481-7.727-.35-9.811-1.2-2.977-5.86-4.553-9.559-5.35a125.035,125.035,0,0,1-36.174-10.36,105.89,105.89,0,0,1-28.747-19.337A85.719,85.719,0,0,1,6.846,119.014,73.678,73.678,0,0,1,0,88.048C0,39.5,48.672,0,108.5,0S217,39.5,217,88.048a69.718,69.718,0,0,1-5.731,27.906,83.011,83.011,0,0,1-7.257,13.259,110.741,110.741,0,0,1-10.267,13.006,183.78,183.78,0,0,1-21.291,20.21c-7.551,6.253-16.138,12.741-25.523,19.282-17.217,12-32.65,21.065-38.43,23.5A16.388,16.388,0,0,1,102.528,206.758ZM150.457,64.586a2.1,2.1,0,0,0-1.464.6l-.01.009a.077.077,0,0,0-.015.015.314.314,0,0,0-.027.029l-.007.008a2.1,2.1,0,0,0-.587,1.456V113.97a2.1,2.1,0,0,0,.591,1.462.2.2,0,0,0,.029.032.159.159,0,0,0,.031.029,2.092,2.092,0,0,0,1.458.591h30.407a2.113,2.113,0,0,0,2.109-2.113v-7.613a2.113,2.113,0,0,0-2.109-2.113H160.187V96.252h20.677a2.113,2.113,0,0,0,2.109-2.113v-7.61a2.114,2.114,0,0,0-2.109-2.115H160.187V76.424h20.677a2.113,2.113,0,0,0,2.109-2.113V66.7a2.114,2.114,0,0,0-2.109-2.115H150.457Zm-112.752,0A2.116,2.116,0,0,0,35.592,66.7v47.269a2.1,2.1,0,0,0,.591,1.464.179.179,0,0,0,.029.031l.017.016.014.013a2.1,2.1,0,0,0,1.46.59h30.4a2.115,2.115,0,0,0,2.11-2.115v-7.61a2.114,2.114,0,0,0-2.11-2.113H47.429V66.7a2.114,2.114,0,0,0-2.111-2.113Zm60.375,0A2.115,2.115,0,0,0,95.964,66.7v47.277a2.115,2.115,0,0,0,2.116,2.11h7.608a2.115,2.115,0,0,0,2.116-2.11V85.893l21.691,29.3a2.08,2.08,0,0,0,.537.522.175.175,0,0,1,.021.017c.036.023.084.052.131.078a.644.644,0,0,0,.059.031,1.069,1.069,0,0,0,.1.05l.044.019.061.025.015.006c.016.006.031.013.047.017.058.021.1.035.144.048a.1.1,0,0,1,.025,0h.005a2.151,2.151,0,0,0,.541.072h7.61a2.113,2.113,0,0,0,2.113-2.109V66.7a2.113,2.113,0,0,0-2.113-2.109h-7.61a2.113,2.113,0,0,0-2.113,2.109V94.784L107.447,65.524a2.287,2.287,0,0,0-.164-.214l-.014-.013c-.047-.052-.09-.1-.127-.131a.5.5,0,0,0-.04-.035,1.13,1.13,0,0,0-.113-.094.305.305,0,0,0-.042-.035l-.012-.009-.039-.027c-.025-.018-.048-.034-.072-.048a.451.451,0,0,0-.064-.038l-.022-.013c-.029-.018-.06-.036-.091-.051l-.021-.01a.4.4,0,0,0-.046-.021,1.176,1.176,0,0,0-.121-.052c-.025-.008-.046-.016-.068-.025a1.213,1.213,0,0,0-.127-.039l-.037-.011-.036-.011-.085-.019-.036-.008-.016,0c-.024,0-.05-.006-.074-.008a.78.78,0,0,0-.094-.013l-.018,0c-.026,0-.051,0-.077-.005h-.031l-.038,0-.037,0Zm-19.238,0A2.114,2.114,0,0,0,76.728,66.7v47.277a2.115,2.115,0,0,0,2.115,2.11h7.61a2.114,2.114,0,0,0,2.113-2.11V66.7a2.113,2.113,0,0,0-2.113-2.109Z" transform="translate(0 -0.001)" fill="#fff"/>
</svg>
