<svg xmlns="http://www.w3.org/2000/svg" xmlns:xlink="http://www.w3.org/1999/xlink" width="100" height="100" viewBox="0 0 100 100">
  <defs>
    <clipPath id="clip-path">
      <rect id="矩形_3" data-name="矩形 3" width="100" height="100" transform="translate(-198 -210)" fill="#e9e9e9"/>
    </clipPath>
  </defs>
  <g id="service_ic_car" transform="translate(198 210)" clip-path="url(#clip-path)">
    <g id="组_3" data-name="组 3" transform="translate(-76.696 -59)">
      <g id="scooter" transform="translate(-68.285 -129)">
        <path id="路径_16" data-name="路径 16" d="M106.59,194.864l-4.695-2.229-2.381-1.13,5.1-12.52,3.258-.815S102.549,187.106,106.59,194.864Z" transform="translate(-90.383 -162.816)" fill="#f8b40e"/>
        <path id="路径_17" data-name="路径 17" d="M449.186,265.736V260.01a.817.817,0,0,0-.817-.817H446a.817.817,0,0,0-.817.817v2.064" transform="translate(-404.336 -236.404)" fill="#f2171c"/>
        <path id="路径_18" data-name="路径 18" d="M446.972,265.736v-6.543H446a.817.817,0,0,0-.817.817v2.064" transform="translate(-404.334 -236.404)" fill="#d8131e"/>
        <path id="路径_19" data-name="路径 19" d="M225.812,253.05a5.516,5.516,0,1,1,0,11.033l3.857,2.068,12.964-1.379,1.34-11.722L226.5,251.671" transform="translate(-205.091 -229.572)" fill="#bf8104"/>
        <path id="路径_20" data-name="路径 20" d="M122.8,107.392h4.119a3.655,3.655,0,0,1,3.655,3.655h0a3.655,3.655,0,0,1-3.655,3.655H122.8a.744.744,0,0,1-.744-.744v-5.822A.743.743,0,0,1,122.8,107.392Z" transform="translate(-110.86 -98.532)" fill="#f8b40e"/>
        <path id="路径_21" data-name="路径 21" d="M126.922,142H122.06v.748a.744.744,0,0,0,.744.744h4.119a3.655,3.655,0,0,0,3.655-3.655h0a3.669,3.669,0,0,0-.076-.746A3.656,3.656,0,0,1,126.922,142Z" transform="translate(-110.86 -127.326)" fill="#dd9b0a"/>
        <path id="路径_22" data-name="路径 22" d="M162.684,390.248H143.1v-3.31H159.97" transform="translate(-129.97 -352.427)" fill="#f8b40e"/>
        <circle id="椭圆_5" data-name="椭圆 5" cx="7.171" cy="7.171" r="7.171" transform="translate(30.922 30.65)" fill="#2c4046"/>
        <path id="路径_23" data-name="路径 23" d="M105.752,187.049,99.8,203l-.285-3.426,5.1-12.52Z" transform="translate(-90.382 -170.88)" fill="#dd9b0a"/>
        <circle id="椭圆_6" data-name="椭圆 6" cx="3.924" cy="3.924" r="3.924" transform="translate(34.169 33.897)" fill="#9aa7b8"/>
        <circle id="椭圆_7" data-name="椭圆 7" cx="7.171" cy="7.171" r="7.171" transform="translate(1.961 30.65)" fill="#2c4046"/>
        <circle id="椭圆_8" data-name="椭圆 8" cx="3.924" cy="3.924" r="3.924" transform="translate(5.208 33.897)" fill="#9aa7b8"/>
        <path id="路径_24" data-name="路径 24" d="M53.531,427.656a4.651,4.651,0,0,1-4.646-4.645h1.443a3.2,3.2,0,0,0,6.405,0h1.443A4.651,4.651,0,0,1,53.531,427.656Z" transform="translate(-44.399 -385.19)" fill="#1d2c30"/>
        <path id="路径_25" data-name="路径 25" d="M305.892,288.273a7.239,7.239,0,0,1,3.434-13.612c3.859,0,11.472,2.04,12.021,12.4a1.145,1.145,0,0,1-1.141,1.21H305.892Z" transform="translate(-274.367 -250.452)" fill="#f8b40e"/>
        <path id="路径_26" data-name="路径 26" d="M304.431,283a7.236,7.236,0,0,1,7.239-7.239,13.011,13.011,0,0,1,4.159.709,12.73,12.73,0,0,0-6.5-1.812,7.239,7.239,0,0,0-3.434,13.612h.815A7.217,7.217,0,0,1,304.431,283Z" transform="translate(-274.367 -250.452)" fill="#dd9b0a"/>
        <path id="路径_27" data-name="路径 27" d="M18.263,332.623a9.132,9.132,0,0,0-18.263,0Z" transform="translate(0 -294.802)" fill="#f8b40e"/>
        <path id="路径_28" data-name="路径 28" d="M10.648,323.618A9.136,9.136,0,0,0,0,332.624H3.033A9.134,9.134,0,0,1,10.648,323.618Z" transform="translate(0 -294.803)" fill="#dd9b0a"/>
        <path id="路径_29" data-name="路径 29" d="M369.151,427.654a4.651,4.651,0,0,1-4.646-4.646h1.443a3.2,3.2,0,1,0,6.4,0H373.8A4.651,4.651,0,0,1,369.151,427.654Z" transform="translate(-331.058 -385.187)" fill="#1d2c30"/>
        <path id="路径_30" data-name="路径 30" d="M124.267,107.392H122.8a.744.744,0,0,0-.744.744v5.822a.744.744,0,0,0,.744.744h1.463Z" transform="translate(-110.86 -98.532)" fill="#a0d9f2"/>
        <path id="路径_31" data-name="路径 31" d="M124.267,170.8H122.06v.748a.744.744,0,0,0,.744.744h1.463Z" transform="translate(-110.86 -156.118)" fill="#84bed3"/>
        <path id="路径_32" data-name="路径 32" d="M227.63,222.349l-14.034.99a3.082,3.082,0,0,0-2.865,3.074h19.544v-1.6A2.472,2.472,0,0,0,227.63,222.349Z" transform="translate(-191.395 -202.935)" fill="#444d56"/>
        <rect id="矩形_2" data-name="矩形 2" width="1.443" height="7.086" transform="translate(16.875 5.012)" fill="#d3d3d3"/>
        <g id="组_2" data-name="组 2" transform="translate(33.74 28.519)">
          <path id="路径_33" data-name="路径 33" d="M375.445,323.076h-7.033a.722.722,0,0,1,0-1.443h7.033a.722.722,0,0,1,0,1.443Z" transform="translate(-367.69 -321.633)" fill="#dd9b0a"/>
          <path id="路径_34" data-name="路径 34" d="M373.606,348.445h-5.194a.722.722,0,1,1,0-1.443h5.194a.722.722,0,1,1,0,1.443Z" transform="translate(-367.69 -344.674)" fill="#dd9b0a"/>
          <path id="路径_35" data-name="路径 35" d="M371.767,373.5h-3.355a.722.722,0,0,1,0-1.443h3.355a.722.722,0,0,1,0,1.443Z" transform="translate(-367.69 -367.426)" fill="#dd9b0a"/>
        </g>
        <circle id="椭圆_9" data-name="椭圆 9" cx="2.12" cy="2.12" r="2.12" transform="translate(15.476 10.394)" fill="#444d56"/>
        <path id="路径_36" data-name="路径 36" d="M178.8,17.555h0a1.31,1.31,0,0,1-1.31-1.31v-4.1a1.31,1.31,0,0,1,1.31-1.31h0a1.31,1.31,0,0,1,1.31,1.31v4.1A1.31,1.31,0,0,1,178.8,17.555Z" transform="translate(-161.199 -10.839)" fill="#e6e6e6"/>
      </g>
      <g id="car" transform="translate(-121.304 -122.222)">
        <path id="路径_1" data-name="路径 1" d="M68.525,83.757a9.3,9.3,0,0,0-1.945-5.19,15.992,15.992,0,0,1-3.1-6.064A74.141,74.141,0,0,0,58.3,61.343a8.949,8.949,0,0,0-6.558-4.321c-5.5-.711-22.673-.711-28.17,0a8.961,8.961,0,0,0-6.556,4.321A74.349,74.349,0,0,0,11.829,72.5a15.992,15.992,0,0,1-3.1,6.064,9.3,9.3,0,0,0-1.943,5.19c-.2,4.091.989,4.99,2.048,14.248a1.44,1.44,0,0,0,1.433,1.276H65.046A1.441,1.441,0,0,0,66.479,98c.3-2.6,1.181-7.862,1.181-7.862A19.281,19.281,0,0,0,68.525,83.757Z" transform="translate(-5.897 -56.49)" fill="#e95353"/>
        <path id="路径_2" data-name="路径 2" d="M104.617,79.075a79.844,79.844,0,0,0-4.879-10.337,8.072,8.072,0,0,0-5.832-3.92c-5.508-.73-22.449-.724-27.918,0a8.073,8.073,0,0,0-5.832,3.92,81.243,81.243,0,0,0-4.9,10.337A314.727,314.727,0,0,0,104.617,79.075Z" transform="translate(-48.19 -63.276)" fill="#168de2"/>
        <path id="路径_3" data-name="路径 3" d="M376.124,215.235a9.068,9.068,0,0,0-1.7.746,20.885,20.885,0,0,1-2.755,1.32c-1.58.6-1.848,1.495-1.848,1.495-.048.062-.093.123-.137.187a2.526,2.526,0,0,0,2.5,3.849,30.51,30.51,0,0,0,6.893-1.842,2.471,2.471,0,0,0,1.5-1.683c.018-.073.034-.147.048-.218A3.47,3.47,0,0,0,376.124,215.235Z" transform="translate(-322.028 -194.784)" fill="#fff"/>
        <path id="路径_4" data-name="路径 4" d="M421.264,327.857h-3.42a.578.578,0,0,0-.409.986l3.42,3.42a.578.578,0,0,0,.987-.409v-3.42A.577.577,0,0,0,421.264,327.857Z" transform="translate(-363.884 -293.14)" fill="#ffe21f"/>
        <path id="路径_5" data-name="路径 5" d="M418.912,334.231a1.443,1.443,0,0,1-1.435,1.28H410.9v3.819a2.449,2.449,0,0,0,2.449,2.449h4.133a2.449,2.449,0,0,0,2.449-2.449V327.375C419.656,329.03,419.128,332.339,418.912,334.231Z" transform="translate(-358.33 -292.72)" fill="#454545"/>
        <path id="路径_6" data-name="路径 6" d="M452.566,148.909a1.972,1.972,0,0,0-1.945-1.493H448.97a1.915,1.915,0,0,0-1.915,1.915v1.177h-.875l.5,1.193h1.925a6.937,6.937,0,0,0,2.888-.629A1.914,1.914,0,0,0,452.566,148.909Z" transform="translate(-389.098 -135.784)" fill="#ed6262"/>
        <circle id="椭圆_1" data-name="椭圆 1" cx="2.408" cy="2.408" r="2.408" transform="translate(52.772 21.128)" fill="#ffbd49"/>
        <circle id="椭圆_2" data-name="椭圆 2" cx="1.769" cy="1.769" r="1.769" transform="translate(48.568 23.667)" fill="#ffdb6f"/>
        <path id="路径_7" data-name="路径 7" d="M166.83,255.324l-2.765,4.815H141.6l-2.765-4.815Z" transform="translate(-121.077 -229.887)" fill="#6f6f6f"/>
        <path id="路径_8" data-name="路径 8" d="M48.947,218.978c-.042-.063-.087-.125-.137-.187,0,0-.268-.9-1.848-1.495a21,21,0,0,1-2.755-1.32,9.122,9.122,0,0,0-1.7-.746A3.471,3.471,0,0,0,38,219.083c.014.073.03.145.046.218a2.471,2.471,0,0,0,1.5,1.683,30.5,30.5,0,0,0,6.9,1.842A2.526,2.526,0,0,0,48.947,218.978Z" transform="translate(-33.091 -194.779)" fill="#fff"/>
        <path id="路径_9" data-name="路径 9" d="M47.434,327.857h-3.42a.577.577,0,0,0-.578.578v3.42a.578.578,0,0,0,.986.409l3.42-3.42A.578.578,0,0,0,47.434,327.857Z" transform="translate(-37.879 -293.14)" fill="#ffe21f"/>
        <path id="路径_10" data-name="路径 10" d="M73.817,333.821c-3.561-6.161-7.656-5.969-7.656-5.969H35.93s-4.093-.193-7.656,5.969H22.119l.075.794a1.444,1.444,0,0,0,1.439,1.312H78.46a1.444,1.444,0,0,0,1.439-1.312l.075-.794Z" transform="translate(-19.289 -293.136)" fill="#777"/>
        <path id="路径_11" data-name="路径 11" d="M17.433,335.528A1.445,1.445,0,0,1,16,334.248c-.216-1.892-.746-5.2-1.016-6.856v11.955a2.449,2.449,0,0,0,2.449,2.449h4.132a2.449,2.449,0,0,0,2.449-2.449v-3.819h-6.58Z" transform="translate(-13.065 -292.735)" fill="#454545"/>
        <path id="路径_12" data-name="路径 12" d="M5.557,150.508v-1.177a1.915,1.915,0,0,0-1.913-1.915H1.992a1.973,1.973,0,0,0-1.945,1.493,1.914,1.914,0,0,0,1.072,2.162,6.941,6.941,0,0,0,2.888.629H5.932l.5-1.193H5.557v0Z" transform="translate(0 -135.784)" fill="#ed6262"/>
        <circle id="椭圆_3" data-name="椭圆 3" cx="2.408" cy="2.408" r="2.408" transform="translate(5.926 21.128)" fill="#ffbd49"/>
        <circle id="椭圆_4" data-name="椭圆 4" cx="1.769" cy="1.769" r="1.769" transform="translate(11.412 23.667)" fill="#ffdb6f"/>
        <g id="组_1" data-name="组 1" transform="translate(18.232 36.402)">
          <path id="路径_13" data-name="路径 13" d="M168.842,341.029h-25.6a.724.724,0,1,0,0,1.449h25.6a.724.724,0,0,0,0-1.449Z" transform="translate(-142.516 -341.029)" fill="#6f6f6f"/>
          <path id="路径_14" data-name="路径 14" d="M168.842,363.635h-25.6a.724.724,0,1,0,0,1.449h25.6a.724.724,0,0,0,0-1.449Z" transform="translate(-142.516 -360.743)" fill="#6f6f6f"/>
        </g>
        <path id="路径_15" data-name="路径 15" d="M101.922,89.634v.248a1.753,1.753,0,0,1-1.838,1.757,1.834,1.834,0,0,1-1.657-1.858V86.22a1.469,1.469,0,0,0-1.538-1.457h-.059A1.472,1.472,0,0,0,95.29,86.22v3.221a1.754,1.754,0,0,1-1.858,1.737,1.815,1.815,0,0,1-1.657-1.838v-2.8A1.555,1.555,0,0,0,90.217,85H90.1a1.466,1.466,0,0,0-1.459,1.459V90.1a1.771,1.771,0,0,1-1.858,1.757A1.817,1.817,0,0,1,85.144,90V85.118a1.393,1.393,0,0,0-1.479-1.378h-.119A1.469,1.469,0,0,0,82.069,85.2v4.992a1.747,1.747,0,0,1-3.493.06v-4.19A1.835,1.835,0,0,0,76.918,84.2,1.755,1.755,0,0,0,75.08,85.96l-.02,3.871a1.753,1.753,0,0,1-1.838,1.757A1.819,1.819,0,0,1,71.575,89.8V85.261a1.819,1.819,0,0,0-1.651-1.842,1.757,1.757,0,0,0-1.844,1.753V89.93a1.767,1.767,0,0,1-1.848,1.711,1.817,1.817,0,0,1-1.638-1.858V86.22a1.487,1.487,0,0,0-1.558-1.457H63a1.477,1.477,0,0,0-1.558,1.457v3.221A1.737,1.737,0,0,1,59.6,91.178a1.777,1.777,0,0,1-1.628-1.6c-.923,1.911-1.838,3.982-2.727,6.193a314.231,314.231,0,0,0,49.358,0Q103.275,92.444,101.922,89.634Z" transform="translate(-48.177 -79.973)" fill="#3aa2eb"/>
      </g>
    </g>
  </g>
</svg>
