<svg xmlns="http://www.w3.org/2000/svg" xmlns:xlink="http://www.w3.org/1999/xlink" width="100" height="100" viewBox="0 0 100 100">
  <defs>
    <clipPath id="clip-path">
      <rect id="矩形_6" data-name="矩形 6" width="100" height="100" transform="translate(-41 -210)" fill="#e9e9e9"/>
    </clipPath>
  </defs>
  <g id="service_ic_pay" transform="translate(41 210)" clip-path="url(#clip-path)">
    <g id="business" transform="translate(-50.662 -225.907)">
      <path id="路径_117" data-name="路径 117" d="M99.054,205.527,114.426,220.9a2.609,2.609,0,1,1-3.689,3.689l1.23,1.23a2.609,2.609,0,1,1-3.689,3.689l-1.23-1.23a2.609,2.609,0,1,1-3.689,3.689l-1.251-1.251a2.639,2.639,0,0,1-3.688,3.775L72,209.216,76.919,192h23.365Z" transform="translate(-40.622 -135.405)" fill="#f0c6a4"/>
      <path id="路径_118" data-name="路径 118" d="M226.946,209.216l-13.455,12.9a2.59,2.59,0,0,0-.687-1.216l-16.209-16.182-4.372,2.185a2.747,2.747,0,0,1-3.374-4.172L197.433,192h24.595Z" transform="translate(-139 -135.405)" fill="#e0b999"/>
      <path id="路径_119" data-name="路径 119" d="M31.378,165.514,24,162.947V136l14.757,4.919Z" transform="translate(0 -88.013)" fill="#2d85cc"/>
      <path id="路径_120" data-name="路径 120" d="M236.027,246.545a1.23,1.23,0,0,1-.551-2.33l8.178-4.089a1.23,1.23,0,1,1,1.1,2.2l-8.178,4.089A1.224,1.224,0,0,1,236.027,246.545Z" transform="translate(-178.393 -176.024)" fill="#d1ad8f"/>
      <path id="路径_121" data-name="路径 121" d="M399.378,165.514l7.378-2.566V136L392,140.919Z" transform="translate(-311.432 -88.013)" fill="#eb423f"/>
      <circle id="椭圆_12" data-name="椭圆 12" cx="13.505" cy="13.505" r="13.505" transform="translate(46.187 33.447)" fill="#ffd33a"/>
      <path id="路径_122" data-name="路径 122" d="M174.757,61.514a14.757,14.757,0,1,1,14.757-14.757A14.757,14.757,0,0,1,174.757,61.514Zm0-27.054a12.3,12.3,0,1,0,12.3,12.3A12.3,12.3,0,0,0,174.757,34.459Z" transform="translate(-115.095)" fill="#ffb632"/>
      <path id="路径_123" data-name="路径 123" d="M235.689,79.378a1.23,1.23,0,1,1,0-2.459h2.459a1.23,1.23,0,1,0,0-2.459h-1.23V73.23a1.23,1.23,0,1,0-2.459,0v1.441a3.689,3.689,0,0,0,1.23,7.167,1.23,1.23,0,0,1,0,2.459H233.23a1.23,1.23,0,1,0,0,2.459h1.23v1.23a1.23,1.23,0,1,0,2.459,0V86.545a3.689,3.689,0,0,0-1.23-7.167Z" transform="translate(-176.027 -33.851)" fill="#ffb632"/>
      <g id="组_8" data-name="组 8" transform="translate(49.824 77.5)">
        <path id="路径_124" data-name="路径 124" d="M203.661,380.89a1.226,1.226,0,0,1-.87-.36L192.36,370.1a1.23,1.23,0,0,1,1.739-1.739l10.431,10.431a1.23,1.23,0,0,1-.87,2.1Z" transform="translate(-192 -361.851)" fill="#d1ad8f"/>
        <path id="路径_125" data-name="路径 125" d="M259.682,340.912a1.225,1.225,0,0,1-.87-.36L248.36,330.1a1.23,1.23,0,0,1,1.739-1.739l10.453,10.453a1.23,1.23,0,0,1-.87,2.1Z" transform="translate(-239.392 -328)" fill="#d1ad8f"/>
        <path id="路径_126" data-name="路径 126" d="M235.682,364.912a1.225,1.225,0,0,1-.87-.36L224.36,354.1a1.23,1.23,0,0,1,1.739-1.739l10.453,10.453a1.23,1.23,0,0,1-.87,2.1Z" transform="translate(-219.081 -348.311)" fill="#d1ad8f"/>
      </g>
    </g>
  </g>
</svg>
