<svg xmlns="http://www.w3.org/2000/svg" xmlns:xlink="http://www.w3.org/1999/xlink" width="100" height="100" viewBox="0 0 100 100">
  <defs>
    <clipPath id="clip-path">
      <rect id="矩形_4" data-name="矩形 4" width="100" height="100" transform="translate(-41 -210)" fill="#e9e9e9"/>
    </clipPath>
  </defs>
  <g id="service_ic_check" transform="translate(41 210)" clip-path="url(#clip-path)">
    <g id="bank" transform="translate(-27.055 -195.195)">
      <path id="路径_37" data-name="路径 37" d="M404.937,3.713a2.486,2.486,0,0,0-4.306-2.487l-2.487,4.307,4.306,2.487Zm0,0" transform="translate(-336.269)" fill="#ed1c24"/>
      <path id="路径_38" data-name="路径 38" d="M0,143.676H72.109v39.785H0Zm0,0" transform="translate(0 -121.35)" fill="#ffeb99"/>
      <path id="路径_39" data-name="路径 39" d="M128,311.676h16.162v2.487H128Zm0,0" transform="translate(-108.108 -263.241)" fill="#57a4ff"/>
      <path id="路径_40" data-name="路径 40" d="M128,263.676h17.406v2.487H128Zm0,0" transform="translate(-108.108 -222.701)" fill="#57a4ff"/>
      <path id="路径_41" data-name="路径 41" d="M128,215.676h21.136v2.487H128Zm0,0" transform="translate(-108.108 -182.16)" fill="#57a4ff"/>
      <path id="路径_42" data-name="路径 42" d="M241.109,260.564l6.839-11.6,2.142,1.263-6.839,11.6Zm0,0" transform="translate(-203.639 -210.275)" fill="#808285"/>
      <path id="路径_43" data-name="路径 43" d="M324.587,51.361l-2.153-1.243,5.592-9.688,8.629,4.938-1.236,2.16-6.477-3.709Zm0,0" transform="translate(-272.325 -34.149)" fill="#a7a9ac"/>
      <path id="路径_44" data-name="路径 44" d="M352,215.676h9.946v2.487H352Zm0,0" transform="translate(-297.296 -182.16)" fill="#57a4ff"/>
      <path id="路径_45" data-name="路径 45" d="M328,263.676h13.676v2.487H328Zm0,0" transform="translate(-277.026 -222.701)" fill="#57a4ff"/>
      <path id="路径_46" data-name="路径 46" d="M296,311.676h18.649v2.487H296Zm0,0" transform="translate(-249.999 -263.241)" fill="#57a4ff"/>
      <path id="路径_47" data-name="路径 47" d="M0,143.676v39.785H47.244C21.136,183.461,0,165.667,0,143.676Zm0,0" transform="translate(0 -121.35)" fill="#ffde55"/>
      <path id="路径_48" data-name="路径 48" d="M388.97,38.108l-4.307-2.487-2.48,4.294,4.287,2.524Zm0,0" transform="translate(-322.789 -30.087)" fill="#006df0"/>
      <path id="路径_49" data-name="路径 49" d="M279.045,63.254l-7.214,12.5L260.392,95.567a2.486,2.486,0,0,0,4.307,2.487l18.633-32.276Zm0,0" transform="translate(-219.65 -53.426)" fill="#ed1c24"/>
      <g id="组_4" data-name="组 4" transform="translate(2.487 55.895)">
        <path id="路径_51" data-name="路径 51" d="M48,359.676h2.487v2.487H48Zm0,0" transform="translate(-43.027 -359.676)" fill="#57a4ff"/>
        <path id="路径_52" data-name="路径 52" d="M16,359.676h2.487v2.487H16Zm0,0" transform="translate(-16 -359.676)" fill="#57a4ff"/>
        <path id="路径_53" data-name="路径 53" d="M80,359.676h2.487v2.487H80Zm0,0" transform="translate(-70.054 -359.676)" fill="#57a4ff"/>
        <path id="路径_54" data-name="路径 54" d="M112,359.676h2.487v2.487H112Zm0,0" transform="translate(-97.081 -359.676)" fill="#57a4ff"/>
        <path id="路径_55" data-name="路径 55" d="M144,359.676h2.487v2.487H144Zm0,0" transform="translate(-124.108 -359.676)" fill="#57a4ff"/>
        <path id="路径_56" data-name="路径 56" d="M176,359.676h2.487v2.487H176Zm0,0" transform="translate(-151.135 -359.676)" fill="#57a4ff"/>
        <path id="路径_57" data-name="路径 57" d="M208,359.676h2.487v2.487H208Zm0,0" transform="translate(-178.162 -359.676)" fill="#57a4ff"/>
        <path id="路径_58" data-name="路径 58" d="M240,359.676h2.487v2.487H240Zm0,0" transform="translate(-205.189 -359.676)" fill="#57a4ff"/>
        <path id="路径_59" data-name="路径 59" d="M272,359.676h2.487v2.487H272Zm0,0" transform="translate(-232.215 -359.676)" fill="#57a4ff"/>
        <path id="路径_60" data-name="路径 60" d="M304,359.676h2.487v2.487H304Zm0,0" transform="translate(-259.242 -359.676)" fill="#57a4ff"/>
        <path id="路径_61" data-name="路径 61" d="M336,359.676h2.487v2.487H336Zm0,0" transform="translate(-286.269 -359.676)" fill="#57a4ff"/>
        <path id="路径_62" data-name="路径 62" d="M368,359.676h2.487v2.487H368Zm0,0" transform="translate(-313.296 -359.676)" fill="#57a4ff"/>
        <path id="路径_63" data-name="路径 63" d="M400,359.676h2.487v2.487H400Zm0,0" transform="translate(-340.323 -359.676)" fill="#57a4ff"/>
        <path id="路径_64" data-name="路径 64" d="M432,359.676h2.487v2.487H432Zm0,0" transform="translate(-367.35 -359.676)" fill="#57a4ff"/>
      </g>
      <path id="路径_149" data-name="路径 149" d="M235.689,79.378a1.23,1.23,0,1,1,0-2.459h2.459a1.23,1.23,0,1,0,0-2.459h-1.23V73.23a1.23,1.23,0,1,0-2.459,0v1.441a3.689,3.689,0,0,0,1.23,7.167,1.23,1.23,0,0,1,0,2.459H233.23a1.23,1.23,0,1,0,0,2.459h1.23v1.23a1.23,1.23,0,1,0,2.459,0V86.545a3.689,3.689,0,0,0-1.23-7.167Z" transform="translate(-224.634 -38.484)" fill="#ff9811"/>
    </g>
  </g>
</svg>
