<svg xmlns="http://www.w3.org/2000/svg" xmlns:xlink="http://www.w3.org/1999/xlink" width="100" height="100" viewBox="0 0 100 100">
  <defs>
    <clipPath id="clip-path">
      <rect id="矩形_5" data-name="矩形 5" width="100" height="100" transform="translate(-41 -210)" fill="#e9e9e9"/>
    </clipPath>
  </defs>
  <g id="service_ic_house" transform="translate(41 210)" clip-path="url(#clip-path)">
    <g id="mortgage-loan" transform="translate(-45.447 -222.905)">
      <path id="路径_93" data-name="路径 93" d="M107.641,93.81H63.181a7.591,7.591,0,0,1-7.591-7.591V39.591A7.591,7.591,0,0,0,48,32H92.46a7.591,7.591,0,0,1,7.591,7.591V86.219A7.591,7.591,0,0,0,107.641,93.81Z" transform="translate(-20.747)" fill="#e9eef2"/>
      <path id="路径_94" data-name="路径 94" d="M88.532,294.363H56V274.844L72.266,264l16.266,10.844Z" transform="translate(-27.662 -200.553)" fill="#dadcde"/>
      <path id="路径_95" data-name="路径 95" d="M24,247.181l2.169,3.253,19.519-13.013,19.519,13.013,2.169-3.253L45.688,232Z" transform="translate(0 -172.89)" fill="#3397e8"/>
      <path id="路径_96" data-name="路径 96" d="M155.253,344h2.169a3.253,3.253,0,0,1,3.253,3.253v16.266H152V347.253A3.253,3.253,0,0,1,155.253,344Z" transform="translate(-110.65 -269.709)" fill="#3397e8"/>
      <path id="路径_97" data-name="路径 97" d="M88,376h4.338v4.338H88Z" transform="translate(-55.325 -297.371)" fill="#3397e8"/>
      <path id="路径_98" data-name="路径 98" d="M144,72h33.616v4.338H144Z" transform="translate(-103.734 -34.578)" fill="#d0d2d4"/>
      <ellipse id="椭圆_10" data-name="椭圆 10" cx="11" cy="10.5" rx="11" ry="10.5" transform="translate(57 71.51)" fill="#ffd33a"/>
      <path id="路径_99" data-name="路径 99" d="M267.928,312a11.928,11.928,0,1,0,11.928,11.928A11.928,11.928,0,0,0,267.928,312Zm0,21.688a9.759,9.759,0,1,1,9.759-9.759A9.76,9.76,0,0,1,267.928,333.688Z" transform="translate(-200.553 -242.046)" fill="#ffb632"/>
      <path id="路径_100" data-name="路径 100" d="M326.506,353.759a3.256,3.256,0,0,1-2.169,3.066V358.1a1.084,1.084,0,1,1-2.169,0v-1.084h-1.084a1.084,1.084,0,1,1,0-2.169h2.169a1.084,1.084,0,1,0,0-2.169,3.253,3.253,0,0,1-1.084-6.319v-1.271a1.084,1.084,0,1,1,2.169,0v1.084h1.084a1.084,1.084,0,0,1,0,2.169h-2.169a1.084,1.084,0,1,0,0,2.169A3.257,3.257,0,0,1,326.506,353.759Z" transform="translate(-255.878 -269.709)" fill="#ffb632"/>
      <g id="组_6" data-name="组 6" transform="translate(40.266 45.013)">
        <path id="路径_101" data-name="路径 101" d="M176.532,128H145.084a1.084,1.084,0,1,0,0,2.169h31.447a1.084,1.084,0,0,0,0-2.169Z" transform="translate(-144 -128)" fill="#d0d2d4"/>
        <path id="路径_102" data-name="路径 102" d="M176.532,160H145.084a1.084,1.084,0,1,0,0,2.169h31.447a1.084,1.084,0,0,0,0-2.169Z" transform="translate(-144 -155.662)" fill="#d0d2d4"/>
        <path id="路径_103" data-name="路径 103" d="M176.532,192H145.084a1.084,1.084,0,1,0,0,2.169h31.447a1.084,1.084,0,1,0,0-2.169Z" transform="translate(-144 -183.325)" fill="#d0d2d4"/>
        <path id="路径_104" data-name="路径 104" d="M280.266,224H265.084a1.084,1.084,0,1,0,0,2.169h15.181a1.084,1.084,0,1,0,0-2.169Z" transform="translate(-247.734 -210.987)" fill="#d0d2d4"/>
      </g>
    </g>
  </g>
</svg>
