<svg xmlns="http://www.w3.org/2000/svg" xmlns:xlink="http://www.w3.org/1999/xlink" width="100" height="100" viewBox="0 0 100 100">
  <defs>
    <clipPath id="clip-path">
      <rect id="矩形_8" data-name="矩形 8" width="100" height="100" transform="translate(-41 -210)" fill="#e9e9e9"/>
    </clipPath>
  </defs>
  <g id="service_ic_boutique" transform="translate(41 210)" clip-path="url(#clip-path)">
    <g id="handbag" transform="translate(-30.194 -192.657)">
      <path id="路径_178" data-name="路径 178" d="M146.729,16.487h-5.968a9.965,9.965,0,1,0-19.929,0h-5.968a15.933,15.933,0,1,1,31.865,0Zm0,0" transform="translate(-101.897 -0.5)" fill="#a4a4a4"/>
      <path id="路径_180" data-name="路径 180" d="M56.946,234.95a7.4,7.4,0,0,1-6.62,3.78H7.475a7.4,7.4,0,0,1-6.62-3.779,7.247,7.247,0,0,1-.1-6.636l3.476-6.945a2.859,2.859,0,0,0,.3-1.267v-9.991L53.269,210v10.1a2.855,2.855,0,0,0,.3,1.27l3.475,6.943a7.244,7.244,0,0,1-.1,6.634Zm0,0" transform="translate(-0.001 -186.35)" fill="#384347"/>
      <path id="路径_182" data-name="路径 182" d="M88.877,131.333v5.431L64.508,146.49l-.035.014L40.14,136.767v-5.434a3.966,3.966,0,0,1,3.961-3.962H84.916a3.965,3.965,0,0,1,3.961,3.962Zm0,0" transform="translate(-35.609 -113.049)" fill="#7b7b7b"/>
      <path id="路径_184" data-name="路径 184" d="M203.867,227.5l-3.767,3.767a1.862,1.862,0,0,1-2.631,0L193.7,227.5a1.87,1.87,0,0,1-.3-2.247l3.886-6.765a1.722,1.722,0,0,1,2.989,0l3.886,6.765A1.87,1.87,0,0,1,203.867,227.5Zm0,0" transform="translate(-169.886 -191.26)" fill="#ffd33a"/>
    </g>
    <g id="watch" transform="translate(7.081 -172.06)">
      <g id="组_38" data-name="组 38" transform="translate(21.768 0)">
        <path id="路径_186" data-name="路径 186" d="M317.829,12.921l6.2-7.166L321.66,1.128H314l-2.368,4.627Z" transform="translate(-307.156 -1.128)" fill="#95d6a4"/>
        <g id="组_36" data-name="组 36" transform="translate(4.472)">
          <path id="路径_187" data-name="路径 187" d="M315.337,5.753h-3.709L314,1.128h2.293Z" transform="translate(-311.628 -1.128)" fill="#78c2a4"/>
          <path id="路径_188" data-name="路径 188" d="M355.679,56.068h4.982l-1.475,4.242-1.017,2.924-1.016-2.924Z" transform="translate(-351.97 -51.442)" fill="#78c2a4"/>
          <path id="路径_189" data-name="路径 189" d="M408.2,5.754h-3.709l-.952-4.625h2.293Z" transform="translate(-395.802 -1.128)" fill="#78c2a4"/>
        </g>
        <path id="路径_190" data-name="路径 190" d="M269.186,141.176a10.673,10.673,0,1,0,10.672,10.673A10.673,10.673,0,0,0,269.186,141.176Zm0,18.131a7.459,7.459,0,1,1,7.459-7.458A7.459,7.459,0,0,1,269.186,159.307Z" transform="translate(-258.514 -129.383)" fill="#ffd064"/>
        <g id="组_37" data-name="组 37" transform="translate(0 11.793)">
          <path id="路径_191" data-name="路径 191" d="M260.226,151.849a10.673,10.673,0,0,1,9.816-10.639q-.424-.034-.856-.034a10.673,10.673,0,0,0,0,21.346q.432,0,.856-.034A10.673,10.673,0,0,1,260.226,151.849Z" transform="translate(-258.514 -141.176)" fill="#ffc250"/>
          <path id="路径_192" data-name="路径 192" d="M395.424,194.215a7.459,7.459,0,1,0,0-14.816,7.457,7.457,0,0,1,0,14.816Z" transform="translate(-383.896 -176.134)" fill="#ffc250"/>
        </g>
        <path id="路径_193" data-name="路径 193" d="M341.451,106.459h-5.407a1.573,1.573,0,1,0,0,3.146h5.407a1.573,1.573,0,1,0,0-3.146Z" transform="translate(-328.075 -97.59)" fill="#ffd064"/>
        <path id="路径_194" data-name="路径 194" d="M337.86,109.137a1.571,1.571,0,0,0,1.113.46h-2.928a1.573,1.573,0,1,1,0-3.146h2.928a1.573,1.573,0,0,0-1.113,2.686Z" transform="translate(-328.075 -97.582)" fill="#ffc250"/>
      </g>
      <path id="路径_195" data-name="路径 195" d="M58.348,42.749V60.205s-.157.9-.5,2.294a45.366,45.366,0,0,1-2.582,7.6,2.674,2.674,0,0,1-2.438,1.567H42.577A2.674,2.674,0,0,1,40.14,70.1a45.365,45.365,0,0,1-2.582-7.6c-.345-1.4-.5-2.294-.5-2.294V42.749a46.711,46.711,0,0,1,3.084-9.9,2.675,2.675,0,0,1,2.438-1.568H52.826a2.675,2.675,0,0,1,2.438,1.568A46.711,46.711,0,0,1,58.348,42.749Z" transform="translate(-33.936 -28.747)" fill="#407093"/>
      <path id="路径_196" data-name="路径 196" d="M44.481,71.666h-1.9A2.676,2.676,0,0,1,40.139,70.1a46.743,46.743,0,0,1-3.083-9.9V42.747a46.743,46.743,0,0,1,3.083-9.9,2.678,2.678,0,0,1,2.438-1.568h1.9c-.66,0-1.26.613-1.531,1.568a68.847,68.847,0,0,0-1.938,9.9V60.2a68.863,68.863,0,0,0,1.938,9.9C43.221,71.055,43.821,71.666,44.481,71.666Z" transform="translate(-33.936 -28.744)" fill="#365e7d"/>
      <path id="路径_197" data-name="路径 197" d="M58.348,133.007v15.74s-.157.9-.5,2.294a13.766,13.766,0,0,1-20.287,0c-.345-1.4-.5-2.294-.5-2.294v-15.74a13.767,13.767,0,0,1,21.292,0Z" transform="translate(-33.936 -117.289)" fill="#365e7d"/>
      <circle id="椭圆_13" data-name="椭圆 13" cx="13.766" cy="13.766" r="13.766" transform="translate(0 8.965)" fill="#e49542"/>
      <path id="路径_198" data-name="路径 198" d="M14.6,135.107c-.277.017-.557.025-.838.025a13.766,13.766,0,0,1,0-27.532c.281,0,.561.009.838.025a13.766,13.766,0,0,0,0,27.482Z" transform="translate(0 -98.635)" fill="#e28424"/>
      <path id="路径_199" data-name="路径 199" d="M58.352,155.3a10.611,10.611,0,1,1-.119-1.6A10.787,10.787,0,0,1,58.352,155.3Z" transform="translate(-33.94 -132.565)" fill="#d3effb"/>
      <path id="路径_200" data-name="路径 200" d="M83.881,179.342,71.752,191.47a10.626,10.626,0,0,1-6.685-3.844l14.969-14.969a10.634,10.634,0,0,1,3.845,6.685Z" transform="translate(-59.588 -158.214)" fill="#ecf9f9"/>
      <path id="路径_201" data-name="路径 201" d="M104.435,212.68a.65.65,0,0,1-.46-.191L99.2,207.71a.651.651,0,0,1,.92-.92l4.319,4.319,1.746-1.746a.651.651,0,1,1,.92.92l-2.206,2.206A.651.651,0,0,1,104.435,212.68Z" transform="translate(-90.669 -189.298)" fill="#365e7d"/>
      <g id="组_39" data-name="组 39" transform="translate(2.47 11.435)">
        <path id="路径_202" data-name="路径 202" d="M33.827,264.655H29.981a.651.651,0,1,1,0-1.3h3.847a.651.651,0,1,1,0,1.3Z" transform="translate(-29.33 -252.708)" fill="#407093"/>
        <path id="路径_203" data-name="路径 203" d="M241,264.655h-3.847a.651.651,0,0,1,0-1.3H241a.651.651,0,0,1,0,1.3Z" transform="translate(-219.059 -252.708)" fill="#407093"/>
        <path id="路径_204" data-name="路径 204" d="M156.409,142.072a.651.651,0,0,1-.651-.651v-3.847a.651.651,0,0,1,1.3,0v3.847A.65.65,0,0,1,156.409,142.072Z" transform="translate(-145.112 -136.924)" fill="#407093"/>
        <path id="路径_205" data-name="路径 205" d="M156.409,349.247a.651.651,0,0,1-.651-.651V344.75a.651.651,0,1,1,1.3,0V348.6A.65.65,0,0,1,156.409,349.247Z" transform="translate(-145.112 -326.654)" fill="#407093"/>
      </g>
      <path id="路径_206" data-name="路径 206" d="M40.625,159.517a11.3,11.3,0,1,1,11.3-11.3,11.309,11.309,0,0,1-11.3,11.3Zm0-21.291a10,10,0,1,0,10,10,10.006,10.006,0,0,0-10-10Z" transform="translate(-26.859 -125.489)" fill="#e28424"/>
    </g>
  </g>
</svg>
