<svg xmlns="http://www.w3.org/2000/svg" xmlns:xlink="http://www.w3.org/1999/xlink" width="100" height="100" viewBox="0 0 100 100">
  <defs>
    <clipPath id="clip-path">
      <rect id="矩形_7" data-name="矩形 7" width="100" height="100" transform="translate(-41 -210)" fill="#e9e9e9"/>
    </clipPath>
  </defs>
  <g id="service_ic_business" transform="translate(41 210)" clip-path="url(#clip-path)">
    <g id="salary" transform="translate(-30.538 -192.564)">
      <g id="组_35" data-name="组 35" transform="translate(7.99 0)">
        <g id="组_17" data-name="组 17" transform="translate(12.998)">
          <g id="组_12" data-name="组 12" transform="translate(2.571 5.967)">
            <g id="组_10" data-name="组 10">
              <path id="路径_137" data-name="路径 137" d="M143.069,52.922a.981.981,0,0,1-.792-.4,5.321,5.321,0,0,0-4.987-2.34,9.873,9.873,0,0,1-6.451-1.466A.983.983,0,1,1,131.9,47.06a7.925,7.925,0,0,0,5.184,1.167,7.31,7.31,0,0,1,6.778,3.13.983.983,0,0,1-.791,1.565Z" transform="translate(-130.385 -46.905)" fill="#ffd064"/>
            </g>
            <g id="组_11" data-name="组 11" transform="translate(1.412 5.32)">
              <path id="路径_138" data-name="路径 138" d="M142.469,94.641a.983.983,0,0,1-.837-1.5c1.26-2.052,3.568-3.463,6.676-4.079a17.821,17.821,0,0,1,4.247-.321.983.983,0,0,1-.133,1.961c-.068,0-6.741-.4-9.115,3.467A.982.982,0,0,1,142.469,94.641Z" transform="translate(-141.487 -88.726)" fill="#ffd064"/>
            </g>
          </g>
          <g id="组_16" data-name="组 16">
            <g id="组_15" data-name="组 15">
              <path id="路径_139" data-name="路径 139" d="M129.951,54.86c16.14,0,25.064-23.674-.423-41.959a2.391,2.391,0,0,1-1-1.967,3.2,3.2,0,0,1,.581-1.8,46.51,46.51,0,0,0,3.941-6.966A.809.809,0,0,0,132.282,1c-1.531,0-1.531-1-3.062-1s-1.531,1-3.062,1c-1.3,0-1.84-1.122-2.474-.306-1.85,2.381,4.486,10.753,4.486,10.753-27.982,18.4-18.959,43.412-2.439,43.412h4.22Z" transform="translate(-110.172 0)" fill="#eabc6b"/>
              <g id="组_13" data-name="组 13" transform="translate(16.899)">
                <path id="路径_140" data-name="路径 140" d="M252.247,11.449S258.676,3.1,256.828.71C256.2-.106,255.66,1,254.357,1c-1.531,0-1.531-1-3.062-1s-1.531,1-3.062,1c-.075,0-.144,0-.213-.009-.615,2.637-3.387,6.745-4.974,8.945.625.917,1.074,1.511,1.074,1.511q-.56.368-1.1.74c26.735,18.376,17.789,42.672,1.439,42.672h10.324c16.571,0,25.537-24.955-2.538-43.412Z" transform="translate(-243.022 0)" fill="#e8ae4d"/>
              </g>
              <g id="组_14" data-name="组 14" transform="translate(14.444 9.722)">
                <path id="路径_141" data-name="路径 141" d="M236.6,81.12a22.368,22.368,0,0,1-11.164,0,2.384,2.384,0,0,1-1.57-3.12l.016-.045a2.2,2.2,0,0,1,2.6-1.466,18.176,18.176,0,0,0,9.08,0,2.2,2.2,0,0,1,2.6,1.466l.016.045A2.383,2.383,0,0,1,236.6,81.12Z" transform="translate(-223.722 -76.425)" fill="#ffe07d"/>
              </g>
            </g>
          </g>
        </g>
        <g id="组_34" data-name="组 34" transform="translate(0 37.229)">
          <g id="组_33" data-name="组 33">
            <g id="组_32" data-name="组 32">
              <g id="组_31" data-name="组 31">
                <g id="组_30" data-name="组 30">
                  <g id="组_29" data-name="组 29">
                    <g id="组_28" data-name="组 28">
                      <g id="组_27" data-name="组 27">
                        <g id="组_26" data-name="组 26">
                          <g id="组_25" data-name="组 25">
                            <g id="组_24" data-name="组 24" transform="translate(5.188 3.444)">
                              <g id="组_23" data-name="组 23">
                                <g id="组_18" data-name="组 18" transform="translate(0)">
                                  <path id="路径_142" data-name="路径 142" d="M48.777,338.222l14.229,5.3a10.827,10.827,0,0,0,3.777.68H81.446a10.827,10.827,0,0,0,5.8-1.682l18.36-11.634a3.223,3.223,0,0,0,.525-4.223c-1-1.465-2.647-1.72-4.462-.862l-17.876,7.871.021-2.9a5.191,5.191,0,0,0-4.438-4.626l-10.886-1.253c-2.511-.355-3.766-1.2-5.955-2.477a19.511,19.511,0,0,0-9.851-2.67h-3.9Z" transform="translate(-48.777 -319.742)" fill="#ffddce"/>
                                </g>
                                <path id="路径_143" data-name="路径 143" d="M62.141,340.7a11.384,11.384,0,0,0,3.971.715H81.527a11.382,11.382,0,0,0,4.737-1.034l10.779-6.83a3.329,3.329,0,0,0,1.019-4.735s-.328-.562-.665-1.135l-13.608,5.992.021-2.9a5.191,5.191,0,0,0-4.438-4.626l-10.886-1.253c-2.511-.355-3.766-1.2-5.955-2.477a19.511,19.511,0,0,0-9.851-2.67h-3.9v15.98Z" transform="translate(-48.777 -319.742)" fill="#ffddce"/>
                                <path id="路径_144" data-name="路径 144" d="M106.126,364.844c-1-1.465-2.647-1.72-4.462-.862l-4.917,2.165.428.678a3.223,3.223,0,0,1-.525,4.223l-10.7,6.779a10.826,10.826,0,0,1-4.506.983H66.783a10.827,10.827,0,0,1-3.777-.68l-14.229-5.3v3.572l14.229,5.3a10.827,10.827,0,0,0,3.777.68H81.446a10.827,10.827,0,0,0,5.8-1.681l18.36-11.634A3.223,3.223,0,0,0,106.126,364.844Z" transform="translate(-48.777 -357.926)" fill="#ffcbbe"/>
                                <g id="组_19" data-name="组 19" transform="translate(33.698 8.039)">
                                  <path id="路径_145" data-name="路径 145" d="M313.691,382.938v.07l.046-.02-.046-.05Z" transform="translate(-313.69 -382.938)" fill="#f5dbcc"/>
                                </g>
                                <g id="组_22" data-name="组 22" transform="translate(22.914 11.959)">
                                  <g id="组_21" data-name="组 21">
                                    <g id="组_20" data-name="组 20">
                                      <path id="路径_146" data-name="路径 146" d="M241.012,415.725H229.9a.983.983,0,0,1,0-1.966h11.129Z" transform="translate(-228.914 -413.759)" fill="#ffcbbe"/>
                                    </g>
                                  </g>
                                </g>
                              </g>
                            </g>
                            <path id="路径_147" data-name="路径 147" d="M16.24,317.426a1.869,1.869,0,0,1-1.869,1.869H9.859a1.869,1.869,0,0,1-1.869-1.869V294.537a1.869,1.869,0,0,1,1.869-1.869h4.511a1.869,1.869,0,0,1,1.869,1.869Z" transform="translate(-7.99 -292.668)" fill="#407093"/>
                          </g>
                        </g>
                      </g>
                    </g>
                  </g>
                </g>
              </g>
            </g>
          </g>
        </g>
      </g>
      <path id="路径_148" data-name="路径 148" d="M236.546,81.092a1.515,1.515,0,1,1,0-3.031h3.031a1.515,1.515,0,0,0,0-3.031h-1.515V73.515a1.515,1.515,0,1,0-3.031,0v1.776a4.546,4.546,0,0,0,1.515,8.831,1.515,1.515,0,0,1,0,3.031h-3.031a1.515,1.515,0,1,0,0,3.031h1.515V91.7a1.515,1.515,0,1,0,3.031,0V89.923a4.546,4.546,0,0,0-1.515-8.831Z" transform="translate(-195.151 -51.042)" fill="#fff"/>
    </g>
  </g>
</svg>
